<?xml version="1.0" encoding="UTF-8"?><svg xmlns="http://www.w3.org/2000/svg" viewBox="0 0 562.56 108.2"><defs><style>.d{fill:#fff;}</style></defs><g id="a"/><g id="b"><g id="c"><path class="d" d="M120.72,67.12l10.28-2.2c1,7.18,5.26,11.83,13.79,11.83,7.1,0,11.11-3.26,11.11-8.07,0-12.72-33.25-5.38-33.25-26.1,0-10.28,8.19-16.48,21.56-16.48,11.11,0,19.47,5.46,21.14,15.09l-9.52,2.94c-1.5-5.71-5.18-9.46-12.2-9.46-6.35,0-10.53,2.53-10.53,6.93,0,12.07,33.25,4.32,33.25,26.51,0,10.52-7.27,17.37-21.64,17.37-13.03,0-22.48-6.2-23.98-18.35Z"/><path class="d" d="M211.95,66.47h-30.83c.58,6.77,4.51,10.68,10.94,10.68,5.43,0,8.94-2.85,10.44-7.1l8.77,2.77c-2.67,7.99-10.19,12.64-19.47,12.64-12.7,0-20.8-8.4-20.8-21.78s7.6-22.27,21.22-22.27,20.89,9.38,19.72,25.04Zm-30.66-7.58h20.8c-.58-5.95-4.18-9.38-10.11-9.38-6.35,0-9.94,3.75-10.69,9.38Z"/><path class="d" d="M255.15,62.22v22.35h-10.03v-22.27c0-5.95-.08-12.23-7.44-12.23-6.43,0-9.52,5.22-9.52,12.23v22.27h-10.03V42.32h10.03v3.92c2.92-2.94,6.6-4.81,11.95-4.81,15.04,0,15.04,12.72,15.04,20.8Z"/><path class="d" d="M260.66,71.44l8.86-1.88c.75,5.71,4.51,8.07,9.94,8.07,4.43,0,7.52-1.71,7.52-4.73,0-8.32-24.73-4.08-24.73-19.17,0-8.56,8.02-12.32,16.71-12.32,9.69,0,16.38,4.65,16.71,12.64l-9.11,1.63c-.25-4.08-3.17-6.36-8.02-6.36-3.26,0-6.43,.98-6.43,4,0,7.67,24.73,3.59,24.73,18.92,0,8.73-7.85,13.21-17.96,13.21s-17.46-5.14-18.21-14.03Z"/><path class="d" d="M301.02,63.37c0-13.29,7.94-21.94,20.8-21.94s20.89,8.65,20.89,21.94-7.94,22.1-20.89,22.1-20.8-8.73-20.8-22.1Zm31.83,0c0-8.24-3.76-13.7-10.95-13.7s-10.95,5.46-10.95,13.7,3.76,13.87,10.86,13.87,11.03-5.63,11.03-13.87Z"/><path class="d" d="M370.71,34.98c-7.02-.9-8.44-.08-8.44,4.73v2.61h8.44v8.07h-8.44v34.17h-10.03V50.4h-6.6v-8.07h6.6v-4.4c0-10.6,7.6-13.29,18.47-11.01v8.07Z"/><path class="d" d="M403.92,42.32h10.03v42.25h-9.11v-5.46c-2.59,3.75-6.35,6.36-12.87,6.36-14.62,0-14.62-11.83-14.62-19.49v-23.65h10.03v22.35c0,7.1,.17,12.15,7.02,12.15,7.85,0,9.52-7.01,9.52-12.32v-22.18Z"/><path class="d" d="M419.8,71.44l8.86-1.88c.75,5.71,4.51,8.07,9.94,8.07,4.43,0,7.52-1.71,7.52-4.73,0-8.32-24.73-4.08-24.73-19.17,0-8.56,8.02-12.32,16.71-12.32,9.69,0,16.38,4.65,16.71,12.64l-9.11,1.63c-.25-4.08-3.17-6.36-8.02-6.36-3.26,0-6.43,.98-6.43,4,0,7.67,24.73,3.59,24.73,18.92,0,8.73-7.85,13.21-17.96,13.21s-17.46-5.14-18.21-14.03Z"/><path class="d" d="M461.99,36.45v-9.46h10.19v9.46h-10.19Zm.08,48.12V42.32h10.03v42.25h-10.03Z"/><path class="d" d="M478.04,63.37c0-13.29,7.94-21.94,20.8-21.94s20.89,8.65,20.89,21.94-7.94,22.1-20.89,22.1-20.8-8.73-20.8-22.1Zm31.83,0c0-8.24-3.76-13.7-10.95-13.7s-10.95,5.46-10.95,13.7,3.76,13.87,10.86,13.87,11.03-5.63,11.03-13.87Z"/><path class="d" d="M562.56,62.22v22.35h-10.03v-22.27c0-5.95-.08-12.23-7.44-12.23-6.43,0-9.52,5.22-9.52,12.23v22.27h-10.03V42.32h10.03v3.92c2.92-2.94,6.6-4.81,11.95-4.81,15.04,0,15.04,12.72,15.04,20.8Z"/><g><path class="d" d="M.03,83.53v-23.02c.5,.09,11.68,5.94,13.97,7.32v7.23c.76,.41,1.48,.8,2.21,1.19,9.99,5.31,19.98,10.62,29.97,15.93,.4,.21,.69,.24,1.1,.02,10.43-5.56,20.87-11.11,31.32-16.65,.47-.25,.67-.51,.66-1.06-.03-3.23-.01-6.46-.01-9.69v-.68c-15.58-8.28-31.15-16.56-46.82-24.89,5.02-2.67,9.97-5.3,14.92-7.93,1.18,.63,2.34,1.24,3.5,1.86,13.87,7.37,27.74,14.74,41.61,22.12,.9,.48,.77,.18,.77,1.3,0,8.75,0,17.51,0,26.26v.78c-.19,.11-.37,.23-.55,.32-10.95,5.82-21.9,11.63-32.85,17.44-4.12,2.19-8.26,4.37-12.37,6.58-.53,.28-.92,.29-1.45,.01-8.22-4.39-16.45-8.76-24.68-13.13-2.31-1.23-4.61-2.45-6.92-3.67-4.61-2.45-9.23-4.89-13.84-7.34-.19-.1-.37-.21-.56-.32Z"/><path class="d" d="M93.24,47.06c-.8-.42-1.47-.77-2.15-1.13-3.75-1.99-7.49-4-11.25-5.97-.47-.25-.61-.53-.6-1.04,.03-1.78,0-3.57,.02-5.35,0-.36-.09-.57-.43-.75-10.65-5.65-21.3-11.31-31.95-16.97-.06-.03-.12-.05-.22-.1-10.86,5.77-21.75,11.56-32.64,17.35v2.27c0,2.42,.02,4.84-.01,7.27,0,.5,.16,.75,.59,.98,10.92,5.79,21.83,11.59,32.74,17.38,4.72,2.51,9.45,5.02,14.17,7.53,.07,.04,.14,.09,.26,.17-.15,.11-.27,.21-.41,.28-4.67,2.48-9.34,4.95-14,7.45-.43,.23-.71,.08-1.05-.1-4.72-2.51-9.45-5.03-14.17-7.54-5.9-3.14-11.81-6.28-17.71-9.42-4.61-2.45-9.23-4.89-13.85-7.33C.2,51.85,0,51.64,0,51.14c.02-8.65,.01-17.3,.01-25.94v-.48c.18-.1,.35-.22,.54-.31C15.75,16.32,30.96,8.24,46.15,.15c.39-.21,.67-.19,1.05,0,10.57,5.63,21.14,11.25,31.71,16.87,4.59,2.44,9.18,4.89,13.78,7.31,.42,.22,.55,.48,.55,.93-.01,7.01,0,14.02,0,21.04v.76Z"/></g></g></g></svg>